<?xml version="1.0" encoding="UTF-8" standalone="no"?>
<!-- Created with Inkscape (http://www.inkscape.org/) -->

<svg
   xmlns:dc="http://purl.org/dc/elements/1.1/"
   xmlns:cc="http://creativecommons.org/ns#"
   xmlns:rdf="http://www.w3.org/1999/02/22-rdf-syntax-ns#"
   xmlns:svg="http://www.w3.org/2000/svg"
   xmlns="http://www.w3.org/2000/svg"
   xmlns:sodipodi="http://sodipodi.sourceforge.net/DTD/sodipodi-0.dtd"
   xmlns:inkscape="http://www.inkscape.org/namespaces/inkscape"
   width="22.52643"
   height="32.09375"
   id="svg5611"
   version="1.1"
   inkscape:version="0.48.5 r10040"
   sodipodi:docname="enter.xcf">
  <defs
     id="defs5613" />
  <sodipodi:namedview
     id="base"
     pagecolor="#ffffff"
     bordercolor="#666666"
     borderopacity="1.0"
     inkscape:pageopacity="0.0"
     inkscape:pageshadow="2"
     inkscape:zoom="1"
     inkscape:cx="0.060006242"
     inkscape:cy="-2.8345308"
     inkscape:document-units="px"
     inkscape:current-layer="g6879"
     showgrid="false"
     fit-margin-top="0"
     fit-margin-left="0"
     fit-margin-right="0"
     fit-margin-bottom="0"
     inkscape:window-width="1366"
     inkscape:window-height="715"
     inkscape:window-x="0"
     inkscape:window-y="0"
     inkscape:window-maximized="1" />
  <metadata
     id="metadata5616">
    <rdf:RDF>
      <cc:Work
         rdf:about="">
        <dc:format>image/svg+xml</dc:format>
        <dc:type
           rdf:resource="http://purl.org/dc/dcmitype/StillImage" />
        <dc:title></dc:title>
      </cc:Work>
    </rdf:RDF>
  </metadata>
  <g
     inkscape:label="Layer 1"
     inkscape:groupmode="layer"
     id="layer1"
     transform="translate(-149.62281,-158.71875)"
     style="display:inline"
     sodipodi:insensitive="true">
    <path
       id="path6872"
       d="m 153.50119,161.08374 c -1.59462,0 -2.87838,1.52196 -2.87838,3.41247 l 0,7.5501 c 0,1.89051 1.28376,3.41247 2.87838,3.41247 l 1.72562,0 0,10.94125 c 0,1.89051 1.28375,3.41247 2.87838,3.41247 l 9.01432,0 c 1.59462,0 2.87838,-1.52196 2.87838,-3.41247 l 0,-14.35372 0,-7.5501 c 0,-1.89051 -1.28376,-3.41247 -2.87838,-3.41247 l -6.36841,0 z"
       style="fill:#1a1a1a;stroke:#1a1a1a;stroke-width:2;stroke-miterlimit:4;stroke-dasharray:none"
       inkscape:connector-curvature="0"
       sodipodi:nodetypes="sssscsssscsscs" />
    <path
       style="fill:#ffffff;stroke:#1a1a1a;stroke-width:2;stroke-miterlimit:4;stroke-dasharray:none"
       d="m 154.65254,159.71875 c -1.59463,0 -2.87838,1.52196 -2.87838,3.41247 l 0,7.5501 c 0,1.89051 1.28375,3.41247 2.87838,3.41247 l 1.72562,0 0,10.94125 c 0,1.89051 1.28375,3.41247 2.87838,3.41247 l 9.01432,0 c 1.59462,0 2.87838,-1.52196 2.87838,-3.41247 l 0,-14.35372 0,-7.5501 c 0,-1.89051 -1.28376,-3.41247 -2.87838,-3.41247 l -6.36841,0 z"
       id="rect6089"
       inkscape:connector-curvature="0"
       sodipodi:nodetypes="sssscsssscsscs" />
    <g
       id="g6874"
       transform="translate(0,4.5)">
      <path
         sodipodi:nodetypes="ccc"
         inkscape:connector-curvature="0"
         id="path6098"
         d="m 158.19632,164.58157 8.19571,0 0,-6.31447"
         style="fill:none;stroke:#1a1a1a;stroke-width:2;stroke-miterlimit:4;stroke-dasharray:none" />
      <path
         inkscape:transform-center-x="0.84231579"
         transform="matrix(0,-0.42414735,0.42414735,0,85.339198,246.28212)"
         d="m 199.57392,172.15 -13.75874,0 6.87937,-11.91542 z"
         inkscape:randomized="0"
         inkscape:rounded="0"
         inkscape:flatsided="true"
         sodipodi:arg2="1.5707963"
         sodipodi:arg1="0.52359878"
         sodipodi:r2="3.9718075"
         sodipodi:r1="7.943615"
         sodipodi:cy="168.17819"
         sodipodi:cx="192.69455"
         sodipodi:sides="3"
         id="path6100"
         style="fill:#1a1a1a;stroke:none"
         sodipodi:type="star" />
    </g>
  </g>
  <g
     style="display:inline"
     transform="translate(-149.62281,-158.71875)"
     id="g6879"
     inkscape:groupmode="layer"
     inkscape:label="pressed">
    <path
       sodipodi:nodetypes="sssscsssscsscs"
       inkscape:connector-curvature="0"
       style="fill:#1a1a1a;stroke:#1a1a1a;stroke-width:2;stroke-miterlimit:4;stroke-dasharray:none"
       d="m 153.50119,161.08374 c -1.59462,0 -2.87838,1.52196 -2.87838,3.41247 l 0,7.5501 c 0,1.89051 1.28376,3.41247 2.87838,3.41247 l 1.72562,0 0,10.94125 c 0,1.89051 1.28375,3.41247 2.87838,3.41247 l 9.01432,0 c 1.59462,0 2.87838,-1.52196 2.87838,-3.41247 l 0,-14.35372 0,-7.5501 c 0,-1.89051 -1.28376,-3.41247 -2.87838,-3.41247 l -6.36841,0 z"
       id="path6881" />
    <path
       sodipodi:nodetypes="sssscsssscsscs"
       inkscape:connector-curvature="0"
       id="path6883"
       d="m 153.59188,161.30974 c -1.59463,0 -2.87838,1.52196 -2.87838,3.41247 l 0,7.5501 c 0,1.89051 1.28375,3.41247 2.87838,3.41247 l 1.72562,0 0,10.94125 c 0,1.89051 1.28375,3.41247 2.87838,3.41247 l 9.01432,0 c 1.59462,0 2.87838,-1.52196 2.87838,-3.41247 l 0,-14.35372 0,-7.5501 c 0,-1.89051 -1.28376,-3.41247 -2.87838,-3.41247 l -6.36841,0 z"
       style="fill:#e6e6e6;stroke:#1a1a1a;stroke-width:2;stroke-miterlimit:4;stroke-dasharray:none" />
    <g
       transform="translate(-1.0606602,6.0909903)"
       id="g6885">
      <path
         style="fill:none;stroke:#1a1a1a;stroke-width:2;stroke-miterlimit:4;stroke-dasharray:none"
         d="m 158.19632,164.58157 8.19571,0 0,-6.31447"
         id="path6887"
         inkscape:connector-curvature="0"
         sodipodi:nodetypes="ccc" />
      <path
         sodipodi:type="star"
         style="fill:#1a1a1a;stroke:none"
         id="path6889"
         sodipodi:sides="3"
         sodipodi:cx="192.69455"
         sodipodi:cy="168.17819"
         sodipodi:r1="7.943615"
         sodipodi:r2="3.9718075"
         sodipodi:arg1="0.52359878"
         sodipodi:arg2="1.5707963"
         inkscape:flatsided="true"
         inkscape:rounded="0"
         inkscape:randomized="0"
         d="m 199.57392,172.15 -13.75874,0 6.87937,-11.91542 z"
         transform="matrix(0,-0.42414735,0.42414735,0,85.339198,246.28212)"
         inkscape:transform-center-x="0.84231579" />
    </g>
  </g>
</svg>
