<?xml version="1.0" encoding="UTF-8" standalone="no"?>
<!-- Created with Inkscape (http://www.inkscape.org/) -->

<svg
   xmlns:dc="http://purl.org/dc/elements/1.1/"
   xmlns:cc="http://creativecommons.org/ns#"
   xmlns:rdf="http://www.w3.org/1999/02/22-rdf-syntax-ns#"
   xmlns:svg="http://www.w3.org/2000/svg"
   xmlns="http://www.w3.org/2000/svg"
   xmlns:sodipodi="http://sodipodi.sourceforge.net/DTD/sodipodi-0.dtd"
   xmlns:inkscape="http://www.inkscape.org/namespaces/inkscape"
   width="40"
   height="60"
   id="svg4575"
   version="1.1"
   inkscape:version="0.48.5 r10040"
   sodipodi:docname="viajero.svg">
  <defs
     id="defs4577" />
  <sodipodi:namedview
     id="base"
     pagecolor="#ffffff"
     bordercolor="#666666"
     borderopacity="1.0"
     inkscape:pageopacity="0.0"
     inkscape:pageshadow="2"
     inkscape:zoom="1"
     inkscape:cx="-83.912312"
     inkscape:cy="31.153097"
     inkscape:document-units="px"
     inkscape:current-layer="layer1"
     showgrid="false"
     inkscape:window-width="1366"
     inkscape:window-height="715"
     inkscape:window-x="0"
     inkscape:window-y="0"
     inkscape:window-maximized="1" />
  <metadata
     id="metadata4580">
    <rdf:RDF>
      <cc:Work
         rdf:about="">
        <dc:format>image/svg+xml</dc:format>
        <dc:type
           rdf:resource="http://purl.org/dc/dcmitype/StillImage" />
        <dc:title />
      </cc:Work>
    </rdf:RDF>
  </metadata>
  <g
     inkscape:groupmode="layer"
     id="layer8"
     inkscape:label="walk0"
     sodipodi:insensitive="true"
     style="display:inline">
    <path
       sodipodi:type="arc"
       style="opacity:0.4;fill:#808080;fill-opacity:1;stroke:none;display:inline"
       id="path5193-1"
       sodipodi:cx="20.152544"
       sodipodi:cy="53.812817"
       sodipodi:rx="12.727922"
       sodipodi:ry="2.6516504"
       d="m 32.880466,53.812817 a 12.727922,2.6516504 0 1 1 -25.4558444,0 12.727922,2.6516504 0 1 1 25.4558444,0 z" />
    <path
       sodipodi:nodetypes="cccc"
       inkscape:connector-curvature="0"
       style="fill:#ffffff;stroke:#1a1a1a;stroke-width:0.99999994;display:inline"
       d="m 20.409463,22.21291 c 4.817375,-1.689999 15.948603,8.450477 14.516084,10.836967 -1.119023,0.648059 -12.459383,-6.197024 -15.572358,-7.496304 -0.634954,-0.758582 -3.636387,-1.401035 1.056274,-3.340663 z"
       id="path5182-1"
       inkscape:transform-center-x="-10.502833"
       inkscape:transform-center-y="-26.683892" />
    <path
       style="fill:#ffffff;stroke:#1a1a1a;stroke-width:0.99999994;display:inline"
       d="m 18.949073,36.834359 1.975977,2.471373 -2.465657,1.971406 c 0.448387,-0.218949 0.885225,-0.49076 1.294648,-0.818113 1.09131,-0.872554 12.337458,8.870484 12.955406,7.401937 0.501864,-1.192515 -7.701868,-11.599952 -9.379432,-14.52937 l -4.380942,3.502767 z"
       id="path5170-2"
       inkscape:connector-curvature="0"
       inkscape:transform-center-y="-13.570589"
       inkscape:transform-center-x="-9.6608696" />
    <path
       style="fill:#ffffff;stroke:#1a1a1a;stroke-width:0.99999994;display:inline"
       d="m 25.227542,31.628702 c 0.533402,4.489222 -1.982686,7.237891 -5.440493,7.648742 -1.387491,0.164859 -2.356023,15.021207 -3.835767,14.430574 -1.320637,-0.527062 -3.181514,-16.422127 -4.006762,-17.58488 -0.554461,-0.781136 -0.936558,-1.709437 -1.064906,-2.789639 -0.154954,-1.304126 -0.08281,-3.304712 0.238164,-5.238189 0.362726,-2.18506 1.043262,-4.284218 2.072998,-5.19538 1.195794,-1.058181 2.712744,-1.774668 4.415423,-1.976978 1.782692,-0.211816 3.499542,0.172097 4.953031,0.995453 2.188067,1.239492 2.34782,7.012971 2.668312,9.710297 z"
       id="path5167-2"
       inkscape:connector-curvature="0"
       sodipodi:nodetypes="ssssssssss"
       inkscape:transform-center-x="-2.115488"
       inkscape:transform-center-y="-16.947038" />
    <path
       id="path5180-3"
       d="M 14.005011,22.857665 C 8.9761101,21.978274 -0.3468176,33.802665 1.456715,35.922778 2.6666479,36.379007 12.73484,27.771453 15.593409,25.980566 16.095755,25.128342 18.9517,24.003617 14.005011,22.857665 z"
       style="fill:#ffffff;stroke:#1a1a1a;stroke-width:0.99999994;display:inline"
       inkscape:connector-curvature="0"
       sodipodi:nodetypes="cccc"
       inkscape:transform-center-x="6.8860998"
       inkscape:transform-center-y="-24.866754" />
    <path
       sodipodi:type="arc"
       style="fill:#ffffff;fill-opacity:1;stroke:none;display:inline"
       id="path5188-0"
       sodipodi:cx="19"
       sodipodi:cy="29.375"
       sodipodi:rx="3.5"
       sodipodi:ry="3.5"
       d="m 22.5,29.375 a 3.5,3.5 0 1 1 -7,0 3.5,3.5 0 1 1 7,0 z"
       transform="matrix(1.0716005,-0.12732579,0.1161926,0.9779012,-7.9751996,-0.78759831)"
       inkscape:transform-center-x="0.13622205"
       inkscape:transform-center-y="-28.723343" />
    <path
       sodipodi:type="arc"
       style="fill:#ffffff;stroke:#1a1a1a;stroke-width:1.10740411;display:inline"
       id="path5165-3"
       sodipodi:cx="21.5"
       sodipodi:cy="13.5"
       sodipodi:rx="11.625"
       sodipodi:ry="11.625"
       d="m 33.125,13.5 a 11.625,11.625 0 1 1 -23.25,0 11.625,11.625 0 1 1 23.25,0 z"
       transform="matrix(0.89566604,-0.10642155,0.10666862,0.89774538,-3.8474902,2.0770898)"
       inkscape:transform-center-x="-0.91476645"
       inkscape:transform-center-y="-42.333813" />
    <path
       sodipodi:type="arc"
       style="fill:#ffffff;fill-opacity:1;stroke:#1a1a1a;stroke-width:1.10740411;stroke-linecap:round;stroke-linejoin:round;stroke-miterlimit:4;stroke-opacity:1;stroke-dasharray:none;display:inline"
       id="path5184-1"
       sodipodi:cx="22.75"
       sodipodi:cy="15.875"
       sodipodi:rx="2.25"
       sodipodi:ry="2.25"
       d="m 25,15.875 a 2.25,2.25 0 1 1 -4.5,0 2.25,2.25 0 1 1 4.5,0 z"
       transform="matrix(0.89566604,-0.10642155,0.10666862,0.89774538,-3.2876989,2.0105763)"
       inkscape:transform-center-x="-2.8474783"
       inkscape:transform-center-y="-40.401209" />
    <path
       style="fill:#ffffff;fill-opacity:1;stroke:#1a1a1a;stroke-width:0.99999994;stroke-linecap:round;stroke-linejoin:round;stroke-miterlimit:4;stroke-opacity:1;stroke-dasharray:none;display:inline"
       d="m 26.379152,10.890166 c -1.112991,0.132244 -1.907808,1.143688 -1.775248,2.259341 0.132548,1.115553 1.142257,1.912687 2.255248,1.780443 0.01847,-0.0022 0.03768,-0.004 0.05598,-0.0067 0.367184,-1.23213 0.475419,-2.558666 0.358363,-3.911807 -0.28117,-0.09791 -0.578994,-0.158794 -0.894342,-0.121325 z"
       id="path5186-8"
       inkscape:connector-curvature="0"
       inkscape:transform-center-x="-10.01941"
       inkscape:transform-center-y="-41.330785" />
  </g>
  <g
     style="display:inline"
     inkscape:groupmode="layer"
     id="g3277"
     inkscape:label="walk1"
     sodipodi:insensitive="true">
    <path
       sodipodi:type="arc"
       style="opacity:0.4;fill:#808080;fill-opacity:1;stroke:none;display:inline"
       id="path3279"
       sodipodi:cx="20.152544"
       sodipodi:cy="53.812817"
       sodipodi:rx="12.727922"
       sodipodi:ry="2.6516504"
       d="m 32.880466,53.812817 a 12.727922,2.6516504 0 1 1 -25.4558444,0 12.727922,2.6516504 0 1 1 25.4558444,0 z" />
    <path
       sodipodi:nodetypes="cccc"
       inkscape:connector-curvature="0"
       style="fill:#ffffff;stroke:#1a1a1a;stroke-width:0.99999994;display:inline"
       d="M 24.329381,24.445113 C 29.417318,24.025474 37.629348,36.646729 35.64096,38.594486 34.394616,38.939186 25.14863,29.453898 22.464276,27.41111 22.0413,26.516847 19.299129,25.137776 24.329381,24.445113 z"
       id="path3281"
       inkscape:transform-center-x="-3.9252186"
       inkscape:transform-center-y="6.0543467" />
    <path
       style="fill:#ffffff;stroke:#1a1a1a;stroke-width:0.99999994;display:inline"
       d="m 22.371237,38.357166 0.337126,3.14619 -3.138913,0.336346 c 0.495778,0.0565 1.010245,0.06222 1.531465,0.0064 1.389295,-0.148871 5.632344,14.112936 6.943005,13.207037 1.064364,-0.735589 -0.256273,-13.921638 -0.09551,-17.293562 l -5.577176,0.597619 z"
       id="path3283"
       inkscape:connector-curvature="0"
       inkscape:transform-center-y="9.9836626"
       inkscape:transform-center-x="-1.0813861" />
    <path
       style="fill:#ffffff;stroke:#1a1a1a;stroke-width:0.99999994;display:inline"
       d="m 29.469248,34.735768 c 0.218295,4.515527 -2.483774,7.081596 -5.96184,7.249737 -1.395622,0.06747 -7.273377,13.186316 -8.708216,12.493691 -1.280564,-0.618087 1.84731,-14.970888 1.10536,-16.188484 -0.498503,-0.817983 -0.814777,-1.770721 -0.867303,-2.857254 -0.06341,-1.311767 0.148397,-3.302416 0.603737,-5.208727 0.514577,-2.154361 1.340182,-4.200813 2.431091,-5.037768 1.266836,-0.972003 2.830159,-1.580703 4.542816,-1.663497 1.793136,-0.08669 3.478951,0.416297 4.871332,1.33924 2.096072,1.389409 1.851861,7.159932 1.983023,9.873062 z"
       id="path3285"
       inkscape:connector-curvature="0"
       sodipodi:nodetypes="ssssssssss"
       inkscape:transform-center-x="11.985902"
       inkscape:transform-center-y="-16.568905" />
    <path
       id="path3287"
       d="M 19.042136,24.826496 C 14.00084,24.021195 4.8529013,35.981479 6.6874334,38.074826 7.9039483,38.513203 17.844401,29.758442 20.676311,27.925688 21.166063,27.066165 24.00515,25.899541 19.042136,24.826496 z"
       style="fill:#ffffff;stroke:#1a1a1a;stroke-width:0.99999994;display:inline"
       inkscape:connector-curvature="0"
       sodipodi:nodetypes="cccc"
       inkscape:transform-center-x="4.5189506"
       inkscape:transform-center-y="5.6207192" />
    <path
       sodipodi:type="arc"
       style="fill:#ffffff;fill-opacity:1;stroke:none;display:inline"
       id="path3289"
       sodipodi:cx="19"
       sodipodi:cy="29.375"
       sodipodi:rx="3.5"
       sodipodi:ry="3.5"
       d="m 22.5,29.375 a 3.5,3.5 0 1 1 -7,0 3.5,3.5 0 1 1 7,0 z"
       transform="matrix(1.0778795,-0.05210818,0.04755192,0.98363118,-1.3863384,0.07785021)"
       inkscape:transform-center-x="10.94438"
       inkscape:transform-center-y="-26.474337" />
    <path
       sodipodi:type="arc"
       style="fill:#ffffff;stroke:#1a1a1a;stroke-width:1.10740411;display:inline"
       id="path3291"
       sodipodi:cx="21.5"
       sodipodi:cy="13.5"
       sodipodi:rx="11.625"
       sodipodi:ry="11.625"
       d="m 33.125,13.5 a 11.625,11.625 0 1 1 -23.25,0 11.625,11.625 0 1 1 23.25,0 z"
       transform="matrix(0.90091416,-0.0435531,0.04365422,0.90300569,2.5310288,3.2240629)"
       inkscape:transform-center-x="8.9445747"
       inkscape:transform-center-y="-39.978048" />
    <path
       sodipodi:type="arc"
       style="fill:#ffffff;fill-opacity:1;stroke:#1a1a1a;stroke-width:1.10740411;stroke-linecap:round;stroke-linejoin:round;stroke-miterlimit:4;stroke-opacity:1;stroke-dasharray:none;display:inline"
       id="path3293"
       sodipodi:cx="22.75"
       sodipodi:cy="15.875"
       sodipodi:rx="2.25"
       sodipodi:ry="2.25"
       d="m 25,15.875 a 2.25,2.25 0 1 1 -4.5,0 2.25,2.25 0 1 1 4.5,0 z"
       transform="matrix(0.90091416,-0.0435531,0.04365422,0.90300569,3.0941002,3.1968422)"
       inkscape:transform-center-x="7.1516817"
       inkscape:transform-center-y="-37.915072" />
    <path
       style="fill:#ffffff;fill-opacity:1;stroke:#1a1a1a;stroke-width:0.99999994;stroke-linecap:round;stroke-linejoin:round;stroke-miterlimit:4;stroke-opacity:1;stroke-dasharray:none;display:inline"
       d="m 32.06769,14.128459 c -1.119513,0.05412 -1.983087,1.007534 -1.928837,2.129723 0.05424,1.12209 1.005765,1.987854 2.125278,1.933734 0.01858,-9.56e-4 0.03788,-0.0013 0.05633,-0.0027 0.452412,-1.203449 0.653109,-2.519175 0.630924,-3.877188 -0.273637,-0.117326 -0.566477,-0.198878 -0.883673,-0.183544 z"
       id="path3295"
       inkscape:connector-curvature="0"
       inkscape:transform-center-x="-0.11014441"
       inkscape:transform-center-y="-38.295819" />
  </g>
  <g
     inkscape:label="walk2"
     id="g3257"
     inkscape:groupmode="layer"
     style="display:inline"
     sodipodi:insensitive="true">
    <path
       d="m 32.880466,53.812817 a 12.727922,2.6516504 0 1 1 -25.4558444,0 12.727922,2.6516504 0 1 1 25.4558444,0 z"
       sodipodi:ry="2.6516504"
       sodipodi:rx="12.727922"
       sodipodi:cy="53.812817"
       sodipodi:cx="20.152544"
       id="path3259"
       style="opacity:0.4;fill:#808080;fill-opacity:1;stroke:none;display:inline"
       sodipodi:type="arc" />
    <path
       inkscape:transform-center-y="2.4838603"
       inkscape:transform-center-x="-5.0684851"
       id="path3261"
       d="m 24.050977,24.707524 c 4.68329,-2.032239 16.515296,7.281038 15.258203,9.764415 -1.069493,0.726895 -12.872979,-5.284483 -16.071371,-6.356409 -0.68789,-0.71093 -3.727769,-1.135758 0.813168,-3.408006 z"
       style="fill:#ffffff;stroke:#1a1a1a;stroke-width:0.99999994;display:inline"
       inkscape:connector-curvature="0"
       sodipodi:nodetypes="cccc" />
    <path
       inkscape:transform-center-x="1.7044671"
       inkscape:transform-center-y="7.549611"
       inkscape:connector-curvature="0"
       id="path3263"
       d="m 19.791999,37.083196 0.256936,3.153752 -3.146457,0.256342 c 0.49418,0.0691 1.008335,0.08791 1.530806,0.04535 1.392635,-0.11346 5.2713,14.251727 6.604595,13.379481 1.082742,-0.708259 0.09816,-13.92365 0.344699,-17.290389 l -5.590579,0.455467 z"
       style="fill:#ffffff;stroke:#1a1a1a;stroke-width:0.99999994;display:inline" />
    <path
       inkscape:transform-center-y="-16.179864"
       inkscape:transform-center-x="-7.6648634"
       sodipodi:nodetypes="ssssssssss"
       inkscape:connector-curvature="0"
       id="path3265"
       d="m 27.141412,34.711714 c -0.618564,4.478282 -3.747683,6.501768 -7.197063,6.025321 -1.38411,-0.191181 -14.326126,8.438013 -15.608544,7.492553 -1.144543,-0.84374 9.322464,-11.193056 8.817896,-12.526637 -0.339027,-0.895914 -0.474091,-1.890649 -0.325252,-2.968219 0.179694,-1.300948 0.755142,-3.218344 1.55438,-5.007919 0.903221,-2.022436 2.092222,-3.881433 3.31882,-4.502747 1.424423,-0.721587 3.073212,-1.031404 4.771742,-0.796794 1.778347,0.245635 3.34242,1.051016 4.540615,2.215007 1.803744,1.75228 0.499067,7.378683 0.127406,10.069435 z"
       style="fill:#ffffff;stroke:#1a1a1a;stroke-width:0.99999994;display:inline" />
    <path
       inkscape:transform-center-y="-0.15528783"
       inkscape:transform-center-x="7.9139378"
       sodipodi:nodetypes="cccc"
       inkscape:connector-curvature="0"
       style="fill:#ffffff;stroke:#1a1a1a;stroke-width:0.99999994;display:inline"
       d="M 19.047681,23.335007 C 15.352061,19.812854 1.0347585,24.476335 1.3586706,27.240877 2.1120627,28.291821 15.26431,26.718016 18.636165,26.8144 c 0.890814,-0.430219 3.890826,0.218896 0.411516,-3.479393 z"
       id="path3267" />
    <path
       inkscape:transform-center-y="-27.825178"
       inkscape:transform-center-x="-7.1280043"
       transform="matrix(1.0689891,0.14765445,-0.13474374,0.97551812,3.2098985,-5.0440553)"
       d="m 22.5,29.375 a 3.5,3.5 0 1 1 -7,0 3.5,3.5 0 1 1 7,0 z"
       sodipodi:ry="3.5"
       sodipodi:rx="3.5"
       sodipodi:cy="29.375"
       sodipodi:cx="19"
       id="path3269"
       style="fill:#ffffff;fill-opacity:1;stroke:none;display:inline"
       sodipodi:type="arc" />
    <path
       inkscape:transform-center-y="-40.728105"
       inkscape:transform-center-x="-11.584905"
       transform="matrix(0.89348336,0.12341267,-0.12369917,0.89555763,6.4795409,-1.229103)"
       d="m 33.125,13.5 a 11.625,11.625 0 1 1 -23.25,0 11.625,11.625 0 1 1 23.25,0 z"
       sodipodi:ry="11.625"
       sodipodi:rx="11.625"
       sodipodi:cy="13.5"
       sodipodi:cx="21.5"
       id="path3271"
       style="fill:#ffffff;stroke:#1a1a1a;stroke-width:1.10740411;display:inline"
       sodipodi:type="arc" />
    <path
       inkscape:transform-center-y="-38.369757"
       inkscape:transform-center-x="-12.966401"
       transform="matrix(0.89348336,0.12341267,-0.12369917,0.89555763,7.037968,-1.1519701)"
       d="m 25,15.875 a 2.25,2.25 0 1 1 -4.5,0 2.25,2.25 0 1 1 4.5,0 z"
       sodipodi:ry="2.25"
       sodipodi:rx="2.25"
       sodipodi:cy="15.875"
       sodipodi:cx="22.75"
       id="path3273"
       style="fill:#ffffff;fill-opacity:1;stroke:#1a1a1a;stroke-width:1.10740411;stroke-linecap:round;stroke-linejoin:round;stroke-miterlimit:4;stroke-opacity:1;stroke-dasharray:none;display:inline"
       sodipodi:type="arc" />
    <path
       inkscape:transform-center-y="-37.29564"
       inkscape:transform-center-x="-20.325981"
       inkscape:connector-curvature="0"
       id="path3275"
       d="m 33.497281,14.937589 c -1.110279,-0.153357 -2.134931,0.624358 -2.288656,1.737292 -0.153711,1.112835 0.62174,2.13929 1.732019,2.292648 0.01843,0.0025 0.03747,0.0057 0.05586,0.0077 0.666682,-1.099319 1.106684,-2.355429 1.335433,-3.694222 -0.247294,-0.165796 -0.52006,-0.299978 -0.834639,-0.34343 z"
       style="fill:#ffffff;fill-opacity:1;stroke:#1a1a1a;stroke-width:0.99999994;stroke-linecap:round;stroke-linejoin:round;stroke-miterlimit:4;stroke-opacity:1;stroke-dasharray:none;display:inline" />
  </g>
  <g
     inkscape:label="Layer 1"
     inkscape:groupmode="layer"
     id="layer1"
     transform="translate(0,-992.36218)"
     style="display:inline"
     sodipodi:insensitive="true">
    <path
       sodipodi:type="arc"
       style="opacity:0.4;fill:#808080;fill-opacity:1;stroke:none"
       id="path5193"
       sodipodi:cx="20.152544"
       sodipodi:cy="53.812817"
       sodipodi:rx="12.727922"
       sodipodi:ry="2.6516504"
       d="m 32.880466,53.812817 c 0,1.464466 -5.698485,2.65165 -12.727922,2.65165 -7.029437,0 -12.7279224,-1.187184 -12.7279224,-2.65165 0,-1.464466 5.6984854,-2.651651 12.7279224,-2.651651 7.029437,0 12.727922,1.187185 12.727922,2.651651 z"
       transform="translate(0,992.36218)" />
    <path
       sodipodi:nodetypes="cccc"
       inkscape:connector-curvature="0"
       style="fill:#ffffff;stroke:#1a1a1a;stroke-width:0.99999994"
       d="m 24.657063,1015.8735 c 4.981326,1.1179 9.05238,15.6148 6.5733,16.8804 -1.292405,-0.043 -7.286215,-11.8554 -9.238589,-14.6062 -0.136787,-0.9798 -2.342419,-3.1144 2.665289,-2.2742 z"
       id="path5182" />
    <path
       style="fill:#ffffff;stroke:#1a1a1a;stroke-width:0.99999994"
       d="m 21.386882,1028.8581 0,3.1642 -3.156882,0 c 0.486937,0.109 0.997867,0.1695 1.522068,0.1695 1.39725,0 4.096637,14.6327 5.496357,13.8716 1.136678,-0.618 1.228447,-13.8697 1.74756,-17.2053 l -5.609103,0 z"
       id="path5170"
       inkscape:connector-curvature="0" />
    <path
       style="fill:#ffffff;stroke:#1a1a1a;stroke-width:0.99999994"
       d="m 27.830785,1025.2453 c 0,4.5208 -2.822824,6.9534 -6.304954,6.9534 -1.397251,0 -4.111894,14.6383 -5.511614,13.8772 -1.249225,-0.6792 -1.221671,-16.6828 -1.903963,-17.9348 -0.458423,-0.8411 -0.728323,-1.808 -0.728323,-2.8958 0,-1.3133 0.307683,-3.2914 0.854546,-5.1735 0.618004,-2.127 1.541463,-4.1312 2.671513,-4.9145 1.312294,-0.9097 2.903185,-1.4422 4.617841,-1.4422 1.795232,0 3.454792,0.5838 4.800982,1.5729 2.026538,1.489 1.503972,7.241 1.503972,9.9573 z"
       id="path5167"
       inkscape:connector-curvature="0"
       sodipodi:nodetypes="ssssssssss" />
    <path
       id="path5180"
       d="m 16.873808,1015.7605 c -4.981326,1.1179 -9.0523785,15.6148 -6.573299,16.8804 1.292404,-0.043 7.286214,-11.8554 9.238588,-14.6062 0.136787,-0.9798 2.34242,-3.1144 -2.665289,-2.2742 z"
       style="fill:#ffffff;stroke:#1a1a1a;stroke-width:0.99999994"
       inkscape:connector-curvature="0"
       sodipodi:nodetypes="cccc" />
    <path
       sodipodi:type="arc"
       style="fill:#ffffff;fill-opacity:1;stroke:none"
       id="path5188"
       sodipodi:cx="19"
       sodipodi:cy="29.375"
       sodipodi:rx="3.5"
       sodipodi:ry="3.5"
       d="m 22.5,29.375 c 0,1.932997 -1.567003,3.5 -3.5,3.5 -1.932997,0 -3.5,-1.567003 -3.5,-3.5 0,-1.932997 1.567003,-3.5 3.5,-3.5 1.932997,0 3.5,1.567003 3.5,3.5 z"
       transform="matrix(1.0791383,0,0,0.98477991,-1.3152877,989.13789)" />
    <path
       sodipodi:type="arc"
       style="fill:#ffffff;stroke:#1a1a1a;stroke-width:1.10740411"
       id="path5165"
       sodipodi:cx="21.5"
       sodipodi:cy="13.5"
       sodipodi:rx="11.625"
       sodipodi:ry="11.625"
       d="m 33.125,13.5 c 0,6.42031 -5.20469,11.625 -11.625,11.625 -6.42031,0 -11.625,-5.20469 -11.625,-11.625 0,-6.4203102 5.20469,-11.625 11.625,-11.625 6.42031,0 11.625,5.2046898 11.625,11.625 z"
       transform="matrix(0.9019663,0,0,0.90406026,2.4455896,992.46959)" />
    <path
       sodipodi:type="arc"
       style="fill:#ffffff;fill-opacity:1;stroke:#1a1a1a;stroke-width:1.10740411;stroke-linecap:round;stroke-linejoin:round;stroke-miterlimit:4;stroke-opacity:1;stroke-dasharray:none"
       id="path5184"
       sodipodi:cx="22.75"
       sodipodi:cy="15.875"
       sodipodi:rx="2.25"
       sodipodi:ry="2.25"
       d="m 25,15.875 c 0,1.242641 -1.007359,2.25 -2.25,2.25 -1.242641,0 -2.25,-1.007359 -2.25,-2.25 0,-1.242641 1.007359,-2.25 2.25,-2.25 1.242641,0 2.25,1.007359 2.25,2.25 z"
       transform="matrix(0.9019663,0,0,0.90406026,3.0093186,992.46959)" />
    <path
       style="fill:#ffffff;fill-opacity:1;stroke:#1a1a1a;stroke-width:0.99999994;stroke-linecap:round;stroke-linejoin:round;stroke-miterlimit:4;stroke-opacity:1;stroke-dasharray:none"
       d="m 31.421257,1004.7875 c -1.12082,0 -2.029424,0.9106 -2.029424,2.0341 0,1.1234 0.908604,2.0341 2.029424,2.0341 0.0186,0 0.03789,5e-4 0.05637,0 0.509996,-1.1802 0.773991,-2.4847 0.817407,-3.8422 -0.267654,-0.1304 -0.556214,-0.226 -0.87378,-0.226 z"
       id="path5186"
       inkscape:connector-curvature="0" />
  </g>
  <g
     inkscape:groupmode="layer"
     id="layer9"
     inkscape:label="jump up"
     sodipodi:insensitive="true">
    <path
       sodipodi:nodetypes="cccc"
       inkscape:connector-curvature="0"
       style="fill:#ffffff;stroke:#1a1a1a;stroke-width:0.99999994;display:inline"
       d="m 24.863475,23.478919 c 4.690013,2.016701 6.019895,17.015535 3.350049,17.802622 -1.262347,-0.280425 -4.97675,-12.995053 -6.388777,-16.058522 0.04611,-0.988227 -1.72839,-3.492719 3.038728,-1.7441 z"
       id="path5182-5"
       inkscape:transform-center-x="-0.62231257"
       inkscape:transform-center-y="7.4724728" />
    <path
       style="fill:#ffffff;stroke:#1a1a1a;stroke-width:0.99999994;display:inline"
       d="m 21.308194,36.221416 -0.678402,3.09062 -3.083472,-0.676833 c 0.452244,0.210864 0.938322,0.379501 1.450333,0.491889 1.364759,0.299569 0.864136,15.170748 2.394486,14.727446 1.242745,-0.359927 4.173533,-13.283798 5.395725,-16.430535 l -5.47867,-1.202587 z"
       id="path5170-1"
       inkscape:connector-curvature="0"
       inkscape:transform-center-y="9.0469153"
       inkscape:transform-center-x="0.4464005" />
    <path
       style="fill:#ffffff;stroke:#1a1a1a;stroke-width:0.99999994;display:inline"
       d="m 27.830785,32.88312 c 0,4.5208 -2.822824,6.9534 -6.304954,6.9534 -1.397251,0 -6.861894,14.6383 -8.261614,13.8772 -1.249225,-0.6792 1.528329,-16.6828 0.846037,-17.9348 -0.458423,-0.8411 -0.728323,-1.808 -0.728323,-2.8958 0,-1.3133 0.307683,-3.2914 0.854546,-5.1735 0.618004,-2.127 1.541463,-4.1312 2.671513,-4.9145 1.312294,-0.9097 2.903185,-1.4422 4.617841,-1.4422 1.795232,0 3.454792,0.5838 4.800982,1.5729 2.026538,1.489 1.503972,7.241 1.503972,9.9573 z"
       id="path5167-4"
       inkscape:connector-curvature="0"
       sodipodi:nodetypes="ssssssssss" />
    <path
       id="path5180-30"
       d="m 17.128127,23.896994 c -4.506016,2.399818 -4.583715,17.457293 -1.857654,18.01958 1.234648,-0.384452 3.878601,-13.363977 5.030923,-16.53428 -0.12815,-0.980967 1.431884,-3.624379 -3.173269,-1.4853 z"
       style="fill:#ffffff;stroke:#1a1a1a;stroke-width:0.99999994;display:inline"
       inkscape:connector-curvature="0"
       sodipodi:nodetypes="cccc"
       inkscape:transform-center-x="1.8992008"
       inkscape:transform-center-y="9.7933464" />
    <path
       sodipodi:type="arc"
       style="fill:#ffffff;fill-opacity:1;stroke:none;display:inline"
       id="path5188-07"
       sodipodi:cx="19"
       sodipodi:cy="29.375"
       sodipodi:rx="3.5"
       sodipodi:ry="3.5"
       d="m 22.5,29.375 a 3.5,3.5 0 1 1 -7,0 3.5,3.5 0 1 1 7,0 z"
       transform="matrix(1.0791383,0,0,0.98477991,-0.69028769,-3.22429)" />
    <path
       sodipodi:type="arc"
       style="fill:#ffffff;stroke:#1a1a1a;stroke-width:1.10740411;display:inline"
       id="path5165-2"
       sodipodi:cx="21.5"
       sodipodi:cy="13.5"
       sodipodi:rx="11.625"
       sodipodi:ry="11.625"
       d="m 33.125,13.5 a 11.625,11.625 0 1 1 -23.25,0 11.625,11.625 0 1 1 23.25,0 z"
       transform="matrix(0.9019663,0,0,0.90406026,1.1955896,-1.01759)" />
    <path
       sodipodi:type="arc"
       style="fill:#ffffff;fill-opacity:1;stroke:#1a1a1a;stroke-width:1.10740411;stroke-linecap:round;stroke-linejoin:round;stroke-miterlimit:4;stroke-opacity:1;stroke-dasharray:none;display:inline"
       id="path5184-8"
       sodipodi:cx="22.75"
       sodipodi:cy="15.875"
       sodipodi:rx="2.25"
       sodipodi:ry="2.25"
       d="m 25,15.875 a 2.25,2.25 0 1 1 -4.5,0 2.25,2.25 0 1 1 4.5,0 z"
       transform="matrix(0.9019663,0,0,0.90406026,1.7593186,-5.613784)" />
    <path
       style="fill:#ffffff;fill-opacity:1;stroke:#1a1a1a;stroke-width:0.99999994;stroke-linecap:round;stroke-linejoin:round;stroke-miterlimit:4;stroke-opacity:1;stroke-dasharray:none;display:inline"
       d="m 30.0625,6.71875 c -1.12082,0 -2.03125,0.907828 -2.03125,2.03125 0,1.123422 0.91043,2.03125 2.03125,2.03125 0.355164,0 0.678362,-0.08932 0.96875,-0.25 C 30.94643,9.174654 30.612712,7.887494 30.0625,6.71875 z"
       id="path8919"
       inkscape:connector-curvature="0" />
  </g>
  <g
     inkscape:label="jump down"
     id="g8924"
     inkscape:groupmode="layer">
    <path
       inkscape:transform-center-y="-3.6317188"
       inkscape:transform-center-x="-6.1850638"
       id="path8926"
       d="M 23.964649,25.183373 C 23.61738,20.089974 36.354182,12.058319 38.273487,14.074218 c 0.326904,1.251116 -9.288928,10.361238 -11.369673,13.016264 -0.900251,0.410204 -2.318185,3.132481 -2.939165,-1.907109 z"
       style="fill:#ffffff;stroke:#1a1a1a;stroke-width:0.99999994;display:inline"
       inkscape:connector-curvature="0"
       sodipodi:nodetypes="cccc" />
    <path
       inkscape:transform-center-x="-2.4070784"
       inkscape:transform-center-y="7.6848908"
       inkscape:connector-curvature="0"
       id="path8928"
       d="m 21.590697,36.837501 0.939731,3.021435 -3.014446,0.937558 c 0.497338,-0.04053 1.003184,-0.134502 1.503733,-0.290184 1.334208,-0.414968 8.257546,12.755832 9.368074,11.613372 0.901853,-0.927698 -2.946122,-13.608748 -3.441066,-16.94802 l -5.356026,1.665839 z"
       style="fill:#ffffff;stroke:#1a1a1a;stroke-width:0.99999994;display:inline" />
    <path
       sodipodi:nodetypes="ssssssssss"
       inkscape:connector-curvature="0"
       id="path8930"
       d="m 27.830785,32.88312 c 0,4.5208 -2.822824,6.9534 -6.304954,6.9534 -1.397251,0 0.638106,15.2633 -0.761614,14.5022 -1.249225,-0.6792 -5.971671,-17.3078 -6.653963,-18.5598 -0.458423,-0.8411 -0.728323,-1.808 -0.728323,-2.8958 0,-1.3133 0.307683,-3.2914 0.854546,-5.1735 0.618004,-2.127 1.541463,-4.1312 2.671513,-4.9145 1.312294,-0.9097 2.903185,-1.4422 4.617841,-1.4422 1.795232,0 3.454792,0.5838 4.800982,1.5729 2.026538,1.489 1.503972,7.241 1.503972,9.9573 z"
       style="fill:#ffffff;stroke:#1a1a1a;stroke-width:0.99999994;display:inline" />
    <path
       inkscape:transform-center-y="-5.6737086"
       inkscape:transform-center-x="6.5702906"
       sodipodi:nodetypes="cccc"
       inkscape:connector-curvature="0"
       style="fill:#ffffff;stroke:#1a1a1a;stroke-width:0.99999994;display:inline"
       d="m 18.583418,24.588151 c -1.042259,-4.9977 -15.4757818,-9.28804 -16.778816,-6.828431 0.023403,1.292908 11.743587,7.465091 14.464475,9.45894 0.977614,0.151622 3.078534,2.389362 2.314341,-2.630509 z"
       id="path8932" />
    <path
       transform="matrix(1.0791383,0,0,0.98477991,-0.69028769,-3.22429)"
       d="m 22.5,29.375 a 3.5,3.5 0 1 1 -7,0 3.5,3.5 0 1 1 7,0 z"
       sodipodi:ry="3.5"
       sodipodi:rx="3.5"
       sodipodi:cy="29.375"
       sodipodi:cx="19"
       id="path8934"
       style="fill:#ffffff;fill-opacity:1;stroke:none;display:inline"
       sodipodi:type="arc" />
    <path
       transform="matrix(0.9019663,0,0,-0.90406026,1.1955896,26.392037)"
       d="m 33.125,13.5 a 11.625,11.625 0 1 1 -23.25,0 11.625,11.625 0 1 1 23.25,0 z"
       sodipodi:ry="11.625"
       sodipodi:rx="11.625"
       sodipodi:cy="13.5"
       sodipodi:cx="21.5"
       id="path8936"
       style="fill:#ffffff;stroke:#1a1a1a;stroke-width:1.10740411;display:inline"
       sodipodi:type="arc" />
    <path
       transform="matrix(0.9019663,0,0,-0.90406026,1.7593186,30.988231)"
       d="m 25,15.875 a 2.25,2.25 0 1 1 -4.5,0 2.25,2.25 0 1 1 4.5,0 z"
       sodipodi:ry="2.25"
       sodipodi:rx="2.25"
       sodipodi:cy="15.875"
       sodipodi:cx="22.75"
       id="path8938"
       style="fill:#ffffff;fill-opacity:1;stroke:#1a1a1a;stroke-width:1.10740411;stroke-linecap:round;stroke-linejoin:round;stroke-miterlimit:4;stroke-opacity:1;stroke-dasharray:none;display:inline"
       sodipodi:type="arc" />
    <path
       inkscape:connector-curvature="0"
       id="path8940"
       d="m 30.0625,18.655697 c -1.12082,0 -2.03125,-0.907828 -2.03125,-2.03125 0,-1.123422 0.91043,-2.03125 2.03125,-2.03125 0.355164,0 0.678362,0.08932 0.96875,0.25 -0.08482,1.356596 -0.418538,2.643756 -0.96875,3.8125 z"
       style="fill:#ffffff;fill-opacity:1;stroke:#1a1a1a;stroke-width:0.99999994;stroke-linecap:round;stroke-linejoin:round;stroke-miterlimit:4;stroke-opacity:1;stroke-dasharray:none;display:inline" />
  </g>
</svg>
